<svg id="Layer_1" data-name="Layer 1" xmlns="http://www.w3.org/2000/svg" xmlns:xlink="http://www.w3.org/1999/xlink" viewBox="0 0 41 37"><defs><linearGradient id="未命名的渐变_26" x1="6.44" y1="15.38" x2="19.16" y2="15.38" gradientUnits="userSpaceOnUse"><stop offset="0" stop-color="#fff"/><stop offset="1" stop-color="#a29e99"/></linearGradient><linearGradient id="未命名的渐变_26-2" x1="17.1" y1="15.4" x2="27.1" y2="15.4" xlink:href="#未命名的渐变_26"/><linearGradient id="未命名的渐变_26-3" x1="26.51" y1="8.85" x2="34.56" y2="8.85" xlink:href="#未命名的渐变_26"/><linearGradient id="未命名的渐变_26-4" x1="24.12" y1="16.06" x2="31.92" y2="16.06" xlink:href="#未命名的渐变_26"/><linearGradient id="未命名的渐变_26-5" x1="21.6" y1="22.68" x2="29.44" y2="22.68" xlink:href="#未命名的渐变_26"/></defs><path d="M6.63,5.87h4.21a.5.5,0,0,1,.48.35l2.33,6.57,2.21-6.36a.29.29,0,0,1,.52-.07L19,10.18a.9.9,0,0,1,.1.81L13.82,24.83a.08.08,0,0,1-.14,0L6.45,6.15A.2.2,0,0,1,6.63,5.87Z" fill="url(#未命名的渐变_26)"/><path d="M17.16,19.47l4.91-13a1.08,1.08,0,0,1,1-.58h3.36c.42,0,.73.3.62.59L20.62,24.34c-.22.83-.15.72-.7.05l-2.65-4A1,1,0,0,1,17.16,19.47Z" fill="url(#未命名的渐变_26-2)"/><path d="M28,6.9l-1.44,4c-.17.48.32.94,1,.94H31.6A1.49,1.49,0,0,0,33.06,11l1.47-4.16c.17-.49-.33-1-1-1H29.8A1.9,1.9,0,0,0,28,6.9Z" fill="url(#未命名的渐变_26-3)"/><path d="M25.47,14.15l-1.31,3.64c-.19.51.33,1,1.05,1H29.1a1.37,1.37,0,0,0,1.32-.75L31.9,13.9c.11-.29-.19-.58-.6-.58H26.93A1.51,1.51,0,0,0,25.47,14.15Z" fill="url(#未命名的渐变_26-4)"/><path d="M23,21.19l-1.3,3c-.19.44.25.89.88.89H26.9a1,1,0,0,0,.9-.49l1.61-3.79c.11-.25-.14-.49-.48-.49H24.62A1.78,1.78,0,0,0,23,21.19Z" fill="url(#未命名的渐变_26-5)"/><path d="M10.88,27.5h.83l.44,1.56a7.21,7.21,0,0,1,.17.79h0c0-.19.06-.35.09-.47l.48-1.88h.86L12.7,31H12Z" fill="#fff"/><path d="M14.19,27.5h1.62v.75H15v.65h.72v.73H15v.65h.83V31H14.19Z" fill="#fff"/><path d="M16.45,27.5h.81l1,2,0-.38V27.5h.8V31h-.82l-1-2,0,.44V31h-.8Z" fill="#fff"/><path d="M19.55,27.5h1.91v.8h-.55V31h-.82V28.3h-.54Z" fill="#fff"/><path d="M21.94,27.5h.82V30a.41.41,0,0,0,.09.28.3.3,0,0,0,.25.1.28.28,0,0,0,.25-.11.39.39,0,0,0,.1-.29V27.5h.82v2.31a2,2,0,0,1-.13.76.81.81,0,0,1-.37.42,1.36,1.36,0,0,1-.67.14,1.07,1.07,0,0,1-.9-.33,1.78,1.78,0,0,1-.26-1.11Z" fill="#fff"/><path d="M25,27.5h.93a1.33,1.33,0,0,1,.9.29,1,1,0,0,1,.33.79,1.13,1.13,0,0,1-.13.5.78.78,0,0,1-.36.36L27.3,31h-.85l-.65-1.61h0V31H25Zm.8.68V29c.36,0,.53-.13.53-.37a.46.46,0,0,0-.12-.36A.69.69,0,0,0,25.79,28.18Z" fill="#fff"/><path d="M27.75,27.5h1.62v.75h-.82v.65h.71v.73h-.71v.65h.83V31H27.75Z" fill="#fff"/></svg>