<svg id="Layer_1" data-name="Layer 1" xmlns="http://www.w3.org/2000/svg" xmlns:xlink="http://www.w3.org/1999/xlink" viewBox="0 0 141 50"><defs><linearGradient id="未命名的渐变_26" x1="6.67" y1="19.42" x2="25.31" y2="19.42" gradientUnits="userSpaceOnUse"><stop offset="0" stop-color="#fff"/><stop offset="1" stop-color="#a29e99"/></linearGradient><linearGradient id="未命名的渐变_26-2" x1="22.29" y1="19.46" x2="36.94" y2="19.46" xlink:href="#未命名的渐变_26"/><linearGradient id="未命名的渐变_26-3" x1="36.07" y1="9.87" x2="47.87" y2="9.87" xlink:href="#未命名的渐变_26"/><linearGradient id="未命名的渐变_26-4" x1="32.57" y1="20.43" x2="44.01" y2="20.43" xlink:href="#未命名的渐变_26"/><linearGradient id="未命名的渐变_26-5" x1="28.89" y1="30.12" x2="40.36" y2="30.12" xlink:href="#未命名的渐变_26"/></defs><path d="M7,5.5h6.17a.75.75,0,0,1,.7.51l3.41,9.63,3.23-9.32a.44.44,0,0,1,.78-.11l3.85,5.61A1.3,1.3,0,0,1,25.23,13L17.48,33.27a.11.11,0,0,1-.21,0L6.69,5.91A.29.29,0,0,1,7,5.5Z" fill="url(#未命名的渐变_26)"/><path d="M22.38,25.43,29.57,6.35a1.58,1.58,0,0,1,1.51-.85H36c.61,0,1.06.43.9.87L27.44,32.56c-.31,1.21-.22,1.06-1,.07l-3.89-5.92A1.4,1.4,0,0,1,22.38,25.43Z" fill="url(#未命名的渐变_26-2)"/><path d="M38.23,7l-2.11,5.85c-.25.69.46,1.37,1.44,1.37h6A2.2,2.2,0,0,0,45.67,13l2.15-6.09c.25-.72-.48-1.42-1.49-1.42H40.9A2.77,2.77,0,0,0,38.23,7Z" fill="url(#未命名的渐变_26-3)"/><path d="M34.55,17.63,32.63,23c-.28.75.49,1.49,1.54,1.49h5.7a2,2,0,0,0,1.93-1.1L44,17.26c.15-.43-.29-.84-.88-.84H36.69A2.21,2.21,0,0,0,34.55,17.63Z" fill="url(#未命名的渐变_26-4)"/><path d="M30.86,27.94,29,32.31c-.28.65.37,1.31,1.29,1.31h6.4A1.39,1.39,0,0,0,38,32.9l2.37-5.57c.15-.35-.21-.71-.71-.71H33.31A2.63,2.63,0,0,0,30.86,27.94Z" fill="url(#未命名的渐变_26-5)"/><path d="M13.72,37.18h1.22l.64,2.29a11.35,11.35,0,0,1,.25,1.16h0c0-.28.09-.51.13-.69l.71-2.76h1.26l-1.55,5.18H15.3Z"/><path d="M18.57,37.18H21v1.1h-1.2v1h1v1.07h-1v.94H21v1.11H18.57Z"/><path d="M21.88,37.18h1.19l1.49,3,0-.56V37.18h1.17v5.18h-1.2L23,39.42l0,.64v2.3H21.88Z"/><path d="M26.42,37.18h2.8v1.18h-.81v4H27.22v-4h-.8Z"/><path d="M29.92,37.18h1.2v3.65a.57.57,0,0,0,.14.4.46.46,0,0,0,.36.15.44.44,0,0,0,.37-.16.6.6,0,0,0,.14-.44v-3.6h1.2v3.4a2.86,2.86,0,0,1-.18,1.11,1.2,1.2,0,0,1-.54.61,2,2,0,0,1-1,.2A1.61,1.61,0,0,1,30.3,42a2.61,2.61,0,0,1-.38-1.62Z"/><path d="M34.39,37.18h1.37a1.93,1.93,0,0,1,1.31.43,1.47,1.47,0,0,1,.48,1.16,1.61,1.61,0,0,1-.18.73,1.21,1.21,0,0,1-.53.52l.94,2.34H36.54L35.59,40h0v2.36H34.39Zm1.18,1v1.23q.78,0,.78-.54a.64.64,0,0,0-.18-.52A1,1,0,0,0,35.57,38.18Z"/><path d="M38.44,37.18h2.37v1.1h-1.2v1h1v1.07h-1v.94h1.21v1.11H38.44Z"/></svg>