<svg id="Layer_1" data-name="Layer 1" xmlns="http://www.w3.org/2000/svg" xmlns:xlink="http://www.w3.org/1999/xlink" viewBox="0 0 50 50"><defs><linearGradient id="未命名的渐变_26" x1="3.42" y1="20.2" x2="22.95" y2="20.2" gradientUnits="userSpaceOnUse"><stop offset="0" stop-color="#fff"/><stop offset="1" stop-color="#a29e99"/></linearGradient><linearGradient id="未命名的渐变_26-2" x1="19.78" y1="20.24" x2="35.13" y2="20.24" xlink:href="#未命名的渐变_26"/><linearGradient id="未命名的渐变_26-3" x1="34.22" y1="10.19" x2="46.58" y2="10.19" xlink:href="#未命名的渐变_26"/><linearGradient id="未命名的渐变_26-4" x1="30.55" y1="21.26" x2="42.54" y2="21.26" xlink:href="#未命名的渐变_26"/><linearGradient id="未命名的渐变_26-5" x1="26.7" y1="31.41" x2="38.72" y2="31.41" xlink:href="#未命名的渐变_26"/></defs><path d="M3.71,5.62h6.47a.78.78,0,0,1,.73.54l3.57,10.08,3.39-9.76a.45.45,0,0,1,.81-.12l4,5.88a1.34,1.34,0,0,1,.14,1.23L14.74,34.71a.11.11,0,0,1-.21,0L3.44,6.05A.31.31,0,0,1,3.71,5.62Z" fill="url(#未命名的渐变_26)"/><path d="M19.88,26.5l7.53-20A1.66,1.66,0,0,1,29,5.62h5.15c.65,0,1.11.45,1,.9L25.18,34c-.33,1.27-.23,1.1-1.07.08L20,27.84A1.46,1.46,0,0,1,19.88,26.5Z" fill="url(#未命名的渐变_26-2)"/><path d="M36.49,7.2l-2.22,6.12c-.26.73.49,1.45,1.51,1.45H42a2.32,2.32,0,0,0,2.24-1.28l2.25-6.38C46.8,6.35,46,5.62,45,5.62H39.28A2.89,2.89,0,0,0,36.49,7.2Z" fill="url(#未命名的渐变_26-3)"/><path d="M32.63,18.32l-2,5.58c-.28.79.52,1.56,1.62,1.56h6a2.11,2.11,0,0,0,2-1.15l2.27-6.37c.16-.45-.29-.89-.92-.89H34.87A2.31,2.31,0,0,0,32.63,18.32Z" fill="url(#未命名的渐变_26-4)"/><path d="M28.76,29.13l-2,4.58c-.29.67.39,1.36,1.35,1.36h6.71a1.46,1.46,0,0,0,1.38-.75l2.48-5.83c.16-.37-.22-.74-.74-.74H31.33A2.76,2.76,0,0,0,28.76,29.13Z" fill="url(#未命名的渐变_26-5)"/><path d="M10.8,38.81h1.28l.67,2.4A8.65,8.65,0,0,1,13,42.42h0c0-.29.09-.54.13-.73l.75-2.88h1.32L13.6,44.23H12.46Z"/><path d="M15.89,38.81h2.49V40H17.12v1h1.09v1.13H17.12v1h1.27v1.16h-2.5Z"/><path d="M19.36,38.81H20.6l1.56,3.13,0-.59V38.81h1.23v5.42H22.08l-1.53-3.08,0,.68v2.4H19.36Z"/><path d="M24.11,38.81H27v1.24h-.85v4.18H25V40.05h-.84Z"/><path d="M27.77,38.81H29v3.82a.56.56,0,0,0,.14.42.46.46,0,0,0,.38.16A.49.49,0,0,0,30,43a.65.65,0,0,0,.14-.46V38.81h1.26v3.56a2.89,2.89,0,0,1-.19,1.16,1.29,1.29,0,0,1-.56.65,2.29,2.29,0,0,1-1,.2,1.7,1.7,0,0,1-1.39-.5,2.83,2.83,0,0,1-.4-1.7Z"/><path d="M32.46,38.81H33.9a2,2,0,0,1,1.37.45,1.55,1.55,0,0,1,.5,1.21,1.59,1.59,0,0,1-.19.76,1.26,1.26,0,0,1-.56.56l1,2.44h-1.3l-1-2.47h0v2.47H32.46Zm1.23,1v1.29c.55,0,.82-.21.82-.58a.67.67,0,0,0-.19-.54A1.1,1.1,0,0,0,33.69,39.86Z"/><path d="M36.7,38.81h2.49V40H37.93v1H39v1.13H37.93v1H39.2v1.16H36.7Z"/></svg>