<svg id="Layer_1" data-name="Layer 1" xmlns="http://www.w3.org/2000/svg" xmlns:xlink="http://www.w3.org/1999/xlink" viewBox="0 0 110 50"><defs><linearGradient id="未命名的渐变_26" x1="6.17" y1="20.88" x2="22.75" y2="20.88" gradientUnits="userSpaceOnUse"><stop offset="0" stop-color="#fff"/><stop offset="1" stop-color="#a29e99"/></linearGradient><linearGradient id="未命名的渐变_26-2" x1="20.06" y1="20.91" x2="33.09" y2="20.91" xlink:href="#未命名的渐变_26"/><linearGradient id="未命名的渐变_26-3" x1="32.32" y1="12.38" x2="42.81" y2="12.38" xlink:href="#未命名的渐变_26"/><linearGradient id="未命名的渐变_26-4" x1="29.2" y1="21.77" x2="39.38" y2="21.77" xlink:href="#未命名的渐变_26"/><linearGradient id="未命名的渐变_26-5" x1="25.93" y1="30.39" x2="36.13" y2="30.39" xlink:href="#未命名的渐变_26"/></defs><path d="M6.42,8.5H11.9a.67.67,0,0,1,.63.46l3,8.56,2.88-8.29a.38.38,0,0,1,.68-.1l3.43,5a1.15,1.15,0,0,1,.12,1.05l-6.89,18a.1.1,0,0,1-.18,0L6.19,8.86A.26.26,0,0,1,6.42,8.5Z" fill="url(#未命名的渐变_26)"/><path d="M20.14,26.22l6.4-17a1.4,1.4,0,0,1,1.34-.75h4.38c.54,0,.94.38.8.77l-8.42,23.3c-.28,1.07-.2.93-.91.06l-3.45-5.27A1.26,1.26,0,0,1,20.14,26.22Z" fill="url(#未命名的渐变_26-2)"/><path d="M34.24,9.84,32.36,15c-.22.62.41,1.22,1.28,1.22H39a1.94,1.94,0,0,0,1.9-1.08l1.92-5.42c.22-.64-.43-1.26-1.33-1.26H36.61A2.45,2.45,0,0,0,34.24,9.84Z" fill="url(#未命名的渐变_26-3)"/><path d="M31,19.28,29.25,24c-.24.67.44,1.32,1.38,1.32H35.7a1.78,1.78,0,0,0,1.72-1L39.35,19c.13-.38-.25-.75-.79-.75H32.87A2,2,0,0,0,31,19.28Z" fill="url(#未命名的渐变_26-4)"/><path d="M27.68,28.46,26,32.35c-.25.57.33,1.15,1.14,1.15h5.69A1.25,1.25,0,0,0,34,32.87l2.1-4.95c.14-.32-.18-.64-.63-.64H29.86A2.33,2.33,0,0,0,27.68,28.46Z" fill="url(#未命名的渐变_26-5)"/><path d="M12.44,36.68h1.09l.56,2a6.9,6.9,0,0,1,.22,1h0a5.12,5.12,0,0,1,.11-.62l.64-2.44h1.11l-1.38,4.6h-1Z"/><path d="M16.75,36.68h2.12v1H17.8v.84h.93v1H17.8v.84h1.07v1H16.75Z"/><path d="M19.7,36.68h1.05l1.33,2.65,0-.5V36.68h1.05v4.6H22l-1.3-2.61,0,.57v2h-1Z"/><path d="M23.73,36.68h2.49v1H25.5v3.55H24.44V37.73h-.71Z"/><path d="M26.84,36.68h1.07v3.24a.53.53,0,0,0,.13.36.39.39,0,0,0,.32.13.42.42,0,0,0,.33-.14.61.61,0,0,0,.12-.39v-3.2h1.07v3a2.5,2.5,0,0,1-.16,1,1.11,1.11,0,0,1-.48.54,1.78,1.78,0,0,1-.88.18A1.45,1.45,0,0,1,27.18,41a2.43,2.43,0,0,1-.34-1.45Z"/><path d="M30.82,36.68H32a1.64,1.64,0,0,1,1.16.38,1.28,1.28,0,0,1,.43,1,1.35,1.35,0,0,1-.16.64,1.07,1.07,0,0,1-.47.47l.83,2.08h-1.1l-.85-2.1h0v2.1H30.82Zm1.05.89v1.09c.46,0,.69-.17.69-.49a.59.59,0,0,0-.16-.46A.82.82,0,0,0,31.87,37.57Z"/><path d="M34.42,36.68h2.11v1H35.47v.84h.92v1h-.92v.84h1.07v1H34.42Z"/></svg>