<svg id="Layer_1" data-name="Layer 1" xmlns="http://www.w3.org/2000/svg" xmlns:xlink="http://www.w3.org/1999/xlink" viewBox="0 0 1500 1000"><defs><linearGradient id="未命名的渐变_7" x1="174.6" y1="390.55" x2="700.36" y2="390.55" gradientUnits="userSpaceOnUse"><stop offset="0" stop-color="#fff"/><stop offset="1"/></linearGradient><linearGradient id="未命名的渐变_7-2" x1="615.13" y1="391.41" x2="1028.33" y2="391.41" xlink:href="#未命名的渐变_7"/><linearGradient id="未命名的渐变_7-3" x1="1003.82" y1="172.55" x2="1336.6" y2="172.55" xlink:href="#未命名的渐变_7"/><linearGradient id="未命名的渐变_7-4" x1="905.11" y1="413.46" x2="1227.66" y2="413.46" xlink:href="#未命名的渐变_7"/><linearGradient id="未命名的渐变_7-5" x1="801.25" y1="634.55" x2="1124.85" y2="634.55" xlink:href="#未命名的渐变_7"/></defs><path d="M171.38,86.59H345.32c8.84,0,16.75,4.66,19.82,11.68l96.17,219.56,91.2-212.5c3.42-8,16-9.43,21.79-2.56L682.89,230.7c6.64,7.83,8.11,18,3.88,26.94l-218.5,462.5c-1,2.13-4.74,2.14-5.76,0L164,95.89C161.86,91.44,165.72,86.59,171.38,86.59Z"/><path d="M606.47,541.16,809.39,105.87c5.31-11.4,22.72-19.28,42.56-19.28H990.78c17.3,0,29.9,9.77,25.45,19.73L749.3,703.93c-8.91,27.55-6.31,24-28.86,1.64L610.87,570.38C603.5,561.28,601.94,550.9,606.47,541.16Z"/><path d="M1053.64,121,994.05,254.37c-7.08,15.84,13,31.38,40.46,31.38H1203c28.34,0,53.09-11.41,60.23-27.75L1324,119c7.15-16.38-13.59-32.37-42-32.37H1128.85C1093.58,86.59,1062.72,100.72,1053.64,121Z"/><path d="M949.83,363.19,895.45,484.74c-7.63,17.06,13.95,33.81,43.59,33.81h160.74c25.61,0,48-10.29,54.53-25l61.29-138.68c4.29-9.71-8-19.21-24.83-19.21h-180.7C981.83,335.61,957.11,346.93,949.83,363.19Z"/><path d="M845.56,598.51l-53.67,99.76c-7.89,14.67,10.47,29.67,36.31,29.67h180.5c17.06,0,32.13-6.6,37.23-16.3l66.74-127c4.24-8.06-5.87-16.26-20-16.26H914.81C883.2,568.4,855.21,580.57,845.56,598.51Z"/><path d="M182.58,73H356.52c8.84,0,16.75,4.66,19.83,11.68l96.17,219.56,91.2-212.5c3.41-8,15.94-9.43,21.78-2.55L694.09,217.08c6.65,7.83,8.11,18,3.88,26.94L479.48,706.52c-1,2.13-4.75,2.14-5.77,0L175.19,82.27C173.06,77.82,176.92,73,182.58,73Z" fill="url(#未命名的渐变_7)"/><path d="M617.68,527.54,820.59,92.25C825.9,80.85,843.31,73,863.15,73H1002c17.29,0,29.89,9.77,25.44,19.73L760.5,690.31c-8.91,27.55-6.3,24-28.85,1.64L622.08,556.76C614.7,547.67,613.14,537.28,617.68,527.54Z" fill="url(#未命名的渐变_7-2)"/><path d="M1064.85,107.42l-59.59,133.33c-7.08,15.84,13,31.38,40.46,31.38h168.53c28.33,0,53.08-11.4,60.22-27.75l60.71-139C1342.34,89,1321.6,73,1293.2,73H1140.05C1104.78,73,1073.92,87.1,1064.85,107.42Z" fill="url(#未命名的渐变_7-3)"/><path d="M961,349.57,906.66,471.12c-7.64,17.07,13.94,33.81,43.58,33.81H1111c25.6,0,48-10.29,54.52-25.05L1226.8,341.2c4.29-9.71-8-19.21-24.83-19.21H1021.28C993,322,968.31,333.31,961,349.57Z" fill="url(#未命名的渐变_7-4)"/><path d="M856.76,584.9,803.1,684.65c-7.9,14.67,10.46,29.67,36.3,29.67h180.51c17.05,0,32.12-6.6,37.22-16.3l66.74-127c4.24-8.07-5.86-16.26-20-16.26H926C894.4,554.79,866.41,567,856.76,584.9Z" fill="url(#未命名的渐变_7-5)"/><path d="M386.36,802.55h32.86l17.16,54.73A210.91,210.91,0,0,1,443,885h.42a136.82,136.82,0,0,1,3.43-16.6L466,802.55H499.7L458,926.4H428.78Z"/><path d="M516.65,802.55H580.4v26.34H548.16v22.83h28v25.69h-28V900h32.45V926.4h-64Z"/><path d="M605.46,802.55h31.82l40,71.43-1.14-13.36V802.55h31.51V926.4H675.34l-39.21-70.32.84,15.4V926.4H605.46Z"/><path d="M727.12,802.55h75.19v28.29H780.57V926.4H748.65V830.84H727.12Z"/><path d="M821,802.55h32.34v87.2q0,6.12,3.64,9.7t9.78,3.57q6.33,0,10-3.8t3.69-10.49V802.55h32.14v81.27q0,16.6-4.89,26.62a31,31,0,0,1-14.4,14.71q-9.52,4.68-26.57,4.68-25.17,0-35.46-11.5T821,879.46Z"/><path d="M941.13,802.55h36.71q22.24,0,35.14,10.2t12.9,27.74a34.07,34.07,0,0,1-4.89,17.39,30.73,30.73,0,0,1-14.25,12.67l25.17,55.85H998.63L973.16,870h-.52V926.4H941.13Zm31.51,23.93v29.41q20.9-.37,20.9-13.08,0-8.62-4.84-12.34T972.64,826.48Z"/><path d="M1049.69,802.55h63.74v26.34H1081.2v22.83h28v25.69h-28V900h32.44V926.4h-64Z"/></svg>