<svg xmlns="http://www.w3.org/2000/svg" xmlns:xlink="http://www.w3.org/1999/xlink" viewBox="0 0 100 50"><defs><linearGradient id="未命名的渐变_7" x1="23.47" y1="19.75" x2="47.71" y2="19.75" gradientUnits="userSpaceOnUse"><stop offset="0" stop-color="#fff"/><stop offset="1"/></linearGradient><linearGradient id="未命名的渐变_7-2" x1="43.78" y1="19.79" x2="62.84" y2="19.79" xlink:href="#未命名的渐变_7"/><linearGradient id="未命名的渐变_7-3" x1="61.7" y1="8.73" x2="77.05" y2="8.73" xlink:href="#未命名的渐变_7"/><linearGradient id="未命名的渐变_7-4" x1="57.15" y1="20.91" x2="72.03" y2="20.91" xlink:href="#未命名的渐变_7"/><linearGradient id="未命名的渐变_7-5" x1="52.36" y1="32.09" x2="67.29" y2="32.09" xlink:href="#未命名的渐变_7"/></defs><g id="Layer_2" data-name="Layer 2"><path d="M23.32,4.38h8a1,1,0,0,1,.91.59l4.44,11.1,4.2-10.74a.59.59,0,0,1,1-.13l5,6.47A1.34,1.34,0,0,1,47.08,13L37,36.42a.15.15,0,0,1-.27,0L23,4.85A.34.34,0,0,1,23.32,4.38Z"/><path d="M43.38,27.37l9.36-22a2.1,2.1,0,0,1,2-1h6.4c.8,0,1.38.49,1.18,1L50,35.6c-.41,1.39-.29,1.21-1.33.08l-5.06-6.84A1.44,1.44,0,0,1,43.38,27.37Z"/><path d="M64,6.12l-2.75,6.74c-.32.8.6,1.59,1.87,1.59h7.77a2.94,2.94,0,0,0,2.78-1.4l2.8-7c.33-.82-.63-1.63-1.94-1.63H67.47C65.84,4.38,64.42,5.09,64,6.12Z"/><path d="M59.22,18.37l-2.51,6.14c-.35.87.64,1.71,2,1.71h7.41A2.66,2.66,0,0,0,68.64,25l2.83-7c.2-.49-.37-1-1.14-1H62A2.91,2.91,0,0,0,59.22,18.37Z"/><path d="M54.41,30.27l-2.48,5c-.36.74.48,1.5,1.68,1.5h8.32A1.89,1.89,0,0,0,63.65,36l3.07-6.42c.2-.41-.27-.83-.92-.83H57.6A3.51,3.51,0,0,0,54.41,30.27Z"/><path d="M23.83,3.69h8a1,1,0,0,1,.91.59l4.43,11.1L41.41,4.64a.59.59,0,0,1,1-.13l5,6.47a1.32,1.32,0,0,1,.18,1.36L37.53,35.73a.15.15,0,0,1-.27,0L23.49,4.16A.35.35,0,0,1,23.83,3.69Z" fill="url(#未命名的渐变_7)"/><path d="M43.9,26.68l9.36-22a2.09,2.09,0,0,1,2-1h6.4c.8,0,1.38.49,1.17,1L50.48,34.91c-.41,1.39-.29,1.21-1.33.08l-5-6.83A1.46,1.46,0,0,1,43.9,26.68Z" fill="url(#未命名的渐变_7-2)"/><path d="M64.52,5.43l-2.75,6.74c-.33.81.6,1.59,1.87,1.59h7.77a3,3,0,0,0,2.78-1.4l2.8-7c.32-.83-.63-1.64-1.94-1.64H68C66.36,3.69,64.94,4.4,64.52,5.43Z" fill="url(#未命名的渐变_7-3)"/><path d="M59.73,17.68l-2.51,6.14c-.35.87.65,1.71,2,1.71h7.42a2.66,2.66,0,0,0,2.51-1.26l2.83-7c.2-.49-.37-1-1.15-1H62.51A3,3,0,0,0,59.73,17.68Z" fill="url(#未命名的渐变_7-4)"/><path d="M54.92,29.58l-2.47,5c-.37.75.48,1.5,1.67,1.5h8.33a1.87,1.87,0,0,0,1.71-.82l3.08-6.42c.2-.41-.27-.82-.92-.82h-8.2A3.53,3.53,0,0,0,54.92,29.58Z" fill="url(#未命名的渐变_7-5)"/><path d="M32.4,38.76H34l.83,3a12.76,12.76,0,0,1,.33,1.5h0a9,9,0,0,1,.16-.9l.93-3.57h1.63l-2,6.72H34.46Z"/><path d="M38.71,38.76h3.08v1.43H40.23v1.24h1.36v1.39H40.23V44H41.8v1.44H38.71Z"/><path d="M43,38.76h1.54l1.93,3.87,0-.72V38.76H48v6.72H46.39l-1.9-3.82,0,.84v3H43Z"/><path d="M48.89,38.76h3.64v1.53H51.48v5.19H49.93V40.29h-1Z"/><path d="M53.44,38.76H55v4.73a.73.73,0,0,0,.18.52.66.66,0,0,0,1,0,.9.9,0,0,0,.17-.57V38.76h1.56v4.41a3.6,3.6,0,0,1-.24,1.44,1.61,1.61,0,0,1-.69.8,2.71,2.71,0,0,1-1.29.25A2.08,2.08,0,0,1,53.94,45a3.39,3.39,0,0,1-.5-2.11Z"/><path d="M59.25,38.76H61a2.45,2.45,0,0,1,1.7.55,1.9,1.9,0,0,1,.63,1.51,2,2,0,0,1-.24.94,1.64,1.64,0,0,1-.69.69l1.22,3H62L60.8,42.42h0v3.06H59.25Zm1.52,1.3v1.59c.68,0,1-.25,1-.71a.84.84,0,0,0-.23-.67A1.3,1.3,0,0,0,60.77,40.06Z"/><path d="M64.5,38.76h3.09v1.43H66v1.24h1.35v1.39H66V44H67.6v1.44H64.5Z"/></g></svg>