<svg id="Layer_1" data-name="Layer 1" xmlns="http://www.w3.org/2000/svg" xmlns:xlink="http://www.w3.org/1999/xlink" viewBox="0 0 1920 1080"><defs><linearGradient id="未命名的渐变_26" x1="365.56" y1="444.11" x2="901.41" y2="444.11" gradientUnits="userSpaceOnUse"><stop offset="0" stop-color="#fff"/><stop offset="1" stop-color="#a29e99"/></linearGradient><linearGradient id="未命名的渐变_26-2" x1="814.55" y1="445.12" x2="1235.69" y2="445.12" xlink:href="#未命名的渐变_26"/><linearGradient id="未命名的渐变_26-3" x1="1210.71" y1="189.72" x2="1549.88" y2="189.72" xlink:href="#未命名的渐变_26"/><linearGradient id="未命名的渐变_26-4" x1="1110.1" y1="470.84" x2="1438.85" y2="470.84" xlink:href="#未命名的渐变_26"/><linearGradient id="未命名的渐变_26-5" x1="1004.24" y1="728.85" x2="1334.06" y2="728.85" xlink:href="#未命名的渐变_26"/></defs><path d="M566,882.23h35L619.34,946a264,264,0,0,1,7.09,32.32h.44A172.88,172.88,0,0,1,630.53,959l20.39-76.75h35.9l-44.44,144.3H611.25Z"/><path d="M704.88,882.23H772.8v30.7H738.45v26.59h29.8v29.94h-29.8v26.27H773v30.8H704.88Z"/><path d="M799.5,882.23h33.9l42.66,83.23-1.22-15.56V882.23h33.58v144.3H874L832.18,944.6l.89,17.94v64H799.5Z"/><path d="M929.13,882.23h80.11v33H986.09v111.33h-34V915.2H929.13Z"/><path d="M1029.19,882.23h34.46V983.84q0,7.13,3.87,11.29t10.42,4.16q6.75,0,10.69-4.43t3.93-12.21V882.23h34.24v94.69q0,19.35-5.21,31t-15.34,17.13q-10.14,5.46-28.31,5.46-26.82,0-37.78-13.4t-11-45.29Z"/><path d="M1157.16,882.23h39.11q23.71,0,37.45,11.89t13.74,32.32a42.63,42.63,0,0,1-5.21,20.27,33.9,33.9,0,0,1-15.18,14.75l26.82,65.07h-35.46l-27.14-65.72h-.56v65.72h-33.57Zm33.57,27.89v34.27Q1213,944,1213,929.14q0-10-5.15-14.37T1190.73,910.12Z"/><path d="M1272.83,882.23h67.92v30.7h-34.34v26.59h29.8v29.94h-29.8v26.27H1341v30.8h-68.15Z"/><path d="M373.7,73.51H551a21.53,21.53,0,0,1,20.2,13.63l98,256.22,92.95-248c3.48-9.29,16.25-11,22.2-3L895,241.68a32.09,32.09,0,0,1,4,31.44L676.29,812.83a3.24,3.24,0,0,1-5.87,0L366.16,84.36A7.91,7.91,0,0,1,373.7,73.51Z" fill="url(#未命名的渐变_26)"/><path d="M817.15,604,1024,96c5.41-13.3,23.15-22.5,43.37-22.5h141.51c17.63,0,30.47,11.4,25.93,23L962.71,793.92c-9.08,32.14-6.42,28-29.4,1.91L821.63,638.07C814.12,627.46,812.52,615.33,817.15,604Z" fill="url(#未命名的渐变_26-2)"/><path d="M1272.9,113.71,1212.17,269.3c-7.22,18.49,13.2,36.62,41.24,36.62h171.77c28.87,0,54.1-13.31,61.38-32.38l61.88-162.26c7.28-19.11-13.85-37.77-42.79-37.77h-156.1C1313.61,73.51,1282.16,90,1272.9,113.71Z" fill="url(#未命名的渐变_26-3)"/><path d="M1167.1,396.29l-55.42,141.84c-7.78,19.92,14.21,39.46,44.42,39.46h163.83c26.1,0,48.92-12,55.57-29.23L1438,386.52c4.38-11.33-8.14-22.42-25.31-22.42H1228.5C1199.71,364.1,1174.52,377.31,1167.1,396.29Z" fill="url(#未命名的渐变_26-4)"/><path d="M1060.83,670.9l-54.7,116.41c-8,17.12,10.66,34.62,37,34.62h184c17.38,0,32.75-7.7,37.94-19l68-148.17c4.31-9.41-6-19-20.43-19H1131.4C1099.19,635.76,1070.66,650,1060.83,670.9Z" fill="url(#未命名的渐变_26-5)"/></svg>