<svg id="Layer_1" data-name="Layer 1" xmlns="http://www.w3.org/2000/svg" xmlns:xlink="http://www.w3.org/1999/xlink" viewBox="0 0 59.39 59.39"><defs><linearGradient id="未命名的渐变_26" x1="1.42" y1="22.7" x2="27.01" y2="22.7" gradientUnits="userSpaceOnUse"><stop offset="0" stop-color="#fff"/><stop offset="1" stop-color="#a29e99"/></linearGradient><linearGradient id="未命名的渐变_26-2" x1="22.86" y1="22.75" x2="42.97" y2="22.75" xlink:href="#未命名的渐变_26"/><linearGradient id="未命名的渐变_26-3" x1="41.77" y1="9.59" x2="57.97" y2="9.59" xlink:href="#未命名的渐变_26"/><linearGradient id="未命名的渐变_26-4" x1="36.97" y1="24.08" x2="52.67" y2="24.08" xlink:href="#未命名的渐变_26"/><linearGradient id="未命名的渐变_26-5" x1="31.92" y1="37.38" x2="47.66" y2="37.38" xlink:href="#未命名的渐变_26"/></defs><path d="M1.81,3.6h8.47a1,1,0,0,1,1,.7l4.68,13.21L20.36,4.73a.59.59,0,0,1,1.06-.16l5.28,7.7a1.73,1.73,0,0,1,.19,1.62L16.26,41.71a.15.15,0,0,1-.28,0L1.45,4.16A.41.41,0,0,1,1.81,3.6Z" fill="url(#未命名的渐变_26)"/><path d="M23,30.94,32.86,4.76A2.14,2.14,0,0,1,34.93,3.6h6.75c.85,0,1.46.59,1.24,1.19l-13,36c-.43,1.65-.3,1.44-1.4.09L23.2,32.7A1.92,1.92,0,0,1,23,30.94Z" fill="url(#未命名的渐变_26-2)"/><path d="M44.74,5.67l-2.9,8c-.34,1,.63,1.89,2,1.89H52a3,3,0,0,0,2.93-1.67l3-8.36c.35-1-.66-1.95-2-1.95H48.4A3.79,3.79,0,0,0,44.74,5.67Z" fill="url(#未命名的渐变_26-3)"/><path d="M39.69,20.24l-2.64,7.31c-.38,1,.67,2,2.12,2H47a2.75,2.75,0,0,0,2.65-1.5l3-8.35c.21-.58-.39-1.15-1.2-1.15h-8.8A3,3,0,0,0,39.69,20.24Z" fill="url(#未命名的渐变_26-4)"/><path d="M34.62,34.39l-2.61,6c-.39.89.51,1.79,1.76,1.79h8.79a1.93,1.93,0,0,0,1.81-1l3.25-7.64c.2-.48-.29-1-1-1H38A3.6,3.6,0,0,0,34.62,34.39Z" fill="url(#未命名的渐变_26-5)"/><path d="M11.1,47.08h1.68l.88,3.13A14.54,14.54,0,0,1,14,51.8h0a9.4,9.4,0,0,1,.17-.95l1-3.77h1.72l-2.13,7.1H13.27Z"/><path d="M17.76,47.08H21v1.51H19.37v1.3H20.8v1.48H19.37v1.29H21v1.52H17.76Z"/><path d="M22.3,47.08h1.63L26,51.17l-.06-.76V47.08h1.61v7.1H25.88l-2-4,0,.89v3.15H22.3Z"/><path d="M28.53,47.08h3.84V48.7H31.26v5.48H29.63V48.7h-1.1Z"/><path d="M33.33,47.08H35v5a.78.78,0,0,0,.19.56.62.62,0,0,0,.5.2.66.66,0,0,0,.51-.21.88.88,0,0,0,.19-.6V47.08H38v4.65a3.81,3.81,0,0,1-.25,1.53,1.68,1.68,0,0,1-.73.84,2.85,2.85,0,0,1-1.36.27,2.22,2.22,0,0,1-1.82-.66,3.64,3.64,0,0,1-.52-2.23Z"/><path d="M39.47,47.08h1.88a2.57,2.57,0,0,1,1.79.58,2,2,0,0,1,.67,1.59,2.13,2.13,0,0,1-.26,1,1.62,1.62,0,0,1-.72.72l1.28,3.21h-1.7l-1.3-3.24h0v3.24H39.47Zm1.61,1.37v1.68c.71,0,1.07-.26,1.07-.75a.85.85,0,0,0-.25-.7A1.31,1.31,0,0,0,41.08,48.45Z"/><path d="M45,47.08h3.26v1.51H46.63v1.3h1.43v1.48H46.63v1.29h1.66v1.52H45Z"/></svg>